<svg xmlns="http://www.w3.org/2000/svg" enable-background="new 0 0 100 100" viewBox="0 0 100 100" id="instagram">
  <g id="Layer_2">
    <path fill="#ffffff" d="M97.214,30.954C96.853,14.058,85.949,3.145,69.048,2.785c-4.018-0.377-34.075-0.383-38.096,0
			C14.058,3.148,3.145,14.05,2.785,30.954c-0.377,4.013-0.384,34.082,0,38.099c0.332,16.854,11.31,27.841,28.167,28.168
			C35.89,97.447,37.531,97.5,50,97.5c12.47,0,14.11-0.053,19.048-0.279c4.607-0.209,8.195-0.899,11.636-2.236
			c10.798-4.147,16.29-14.362,16.53-25.932C97.592,65.041,97.599,34.968,97.214,30.954z M94.31,68.92
			c-0.292,15.376-10.011,25.109-25.395,25.396c-3.924,0.373-33.904,0.379-37.831,0C15.709,94.025,5.978,84.306,5.69,68.92
			c-0.223-4.887-0.276-6.512-0.276-18.917c0.35-19.721-2.294-34.648,14.955-42.271c3.132-1.217,6.437-1.847,10.715-2.043
			C35.971,5.467,37.597,5.415,50,5.415c12.403,0,14.029,0.052,18.916,0.275c4.278,0.195,7.583,0.825,10.716,2.043
			c17.227,7.592,14.613,22.57,14.954,42.27C94.585,62.409,94.532,64.035,94.31,68.92z"></path>
    <path fill="#ffffff" d="M74.59 31.958c3.584 0 6.5-2.927 6.5-6.525-.305-8.635-12.696-8.633-13 0C68.09 29.031 71.007 31.958 74.59 31.958zM74.59 21.628c5.011.16 5.01 7.453 0 7.612C69.579 29.08 69.581 21.787 74.59 21.628zM87.606 67.175c-.828-.033-1.482.585-1.518 1.386-.561 11.685-5.765 16.946-17.485 17.487-3.743.363-33.33.366-37.075 0-16.809-.455-18.153-12.159-17.549-26.548.027-4.018.099-14.328.065-19.687-.008-1.88-2.884-1.932-2.908 0 .05 5.377-.032 15.633-.065 19.657-.189 6.026-.046 14.351 1.75 18.232 6.183 14.108 19.607 10.977 37.245 11.52 21.597-.243 37.34 2.487 38.928-20.529C89.028 67.891 88.407 67.211 87.606 67.175z"></path>
    <path fill="#ffffff" d="M87.11,22.341c-6-13.992-19.782-11.042-37.245-11.519c-21.251-0.008-37.829-1.932-38.928,20.53
					c-0.036,1.915,2.772,2.042,2.905,0.132c0.561-11.685,5.764-16.947,17.485-17.487c3.771-0.365,33.301-0.367,37.076,0
					c11.718,0.528,16.924,5.812,17.486,17.487c0.264,3.085,0.413,19.151-0.001,27.415c-0.035,1.885,2.805,2.025,2.906,0.087
					c0,0,0.27-8.963,0.27-8.963c0-12.316-0.047-13.781-0.271-18.671C88.579,26.647,87.781,24.064,87.11,22.341z"></path>
    <g>
      <path fill="#ffffff" d="M25,50c0,13.785,11.244,25,25.065,25c33.252-1.374,33.242-48.631,0-50C36.244,25,25,36.215,25,50z M72.225,50
					c0,12.187-9.941,22.103-22.16,22.103c-29.4-1.215-29.391-42.997,0-44.207C62.284,27.897,72.225,37.813,72.225,50z"></path>
      <path fill="#ffffff" d="M50.043,66.5c21.946-0.907,21.94-32.097,0-33C40.921,33.5,33.5,40.902,33.5,50C33.5,59.098,40.921,66.5,50.043,66.5z
					 M50.043,36.356c7.543,0,13.679,6.121,13.679,13.644s-6.136,13.645-13.679,13.645C31.895,62.894,31.9,37.103,50.043,36.356z" ></path>
    </g>
  </g>
</svg>
