<svg xmlns="http://www.w3.org/2000/svg" width="250" height="90"
     viewBox="70 30 340 1">
    <defs id="SvgjsDefs3181"></defs>
    <g
            transform="matrix(0.6729836463928223,0,0,0.6729836463928223,94,48.392808064969806)" fill="#ffffff">
        <path d="M0 5.98 l11.42 0 c2.14 0 3.88 1.74 3.88 3.9 c0 2.14 -1.74 3.9 -3.88 3.9 l-9.86 -0.02 l0 4.68 l1.56 0 l0 -3.12 l1.54 0 l0 4.68 l-4.66 0 l0 -7.8 l11.42 0.02 c1.28 0 2.32 -1.06 2.32 -2.34 c0 -1.3 -1.04 -2.34 -2.32 -2.34 l-9.86 0 l0 1.56 l9.86 0 c0.4 0.02 0.74 0.36 0.74 0.78 s-0.32 0.76 -0.78 0.78 l-0.02 0 l-11.36 0 l0 -4.68 z M32.68 20 l-5.4 0 l-1.82 -3.14 l-3.5 0 l0 3.14 l-4.66 0 l0 -7.8 l11.44 0.02 c1.3 0 2.34 -1.06 2.34 -2.34 c0 -1.3 -1.04 -2.34 -2.34 -2.34 l-9.88 0 l0 1.56 l9.88 0 c0.42 0.02 0.74 0.36 0.74 0.78 s-0.32 0.76 -0.74 0.78 l-0.02 0 l-0.02 0 l-11.4 0 l0 -4.68 l11.44 0 c2.16 0 3.9 1.74 3.9 3.9 c0 2.14 -1.74 3.9 -3.9 3.9 l-9.88 -0.02 l0 4.68 l1.56 0 l0 -3.14 l5.94 0 c0.64 1.16 1.72 2.94 1.82 3.14 l1.8 0 c-0.16 -0.22 -1.08 -1.86 -1.82 -3.14 l1.8 0 c0.66 1.14 1.32 2.32 1.86 3.2 z M41.88 5.359999999999999 c4.2 0 7.62 3.42 7.62 7.64 s-3.42 7.62 -7.62 7.62 c-4.22 0 -7.64 -3.4 -7.64 -7.62 s3.42 -7.64 7.64 -7.64 z M41.88 19.08 c3.36 0 6.08 -2.72 6.08 -6.08 s-2.72 -6.1 -6.08 -6.1 c-3.38 0 -6.1 2.74 -6.1 6.1 s2.72 6.08 6.1 6.08 z M41.88 8.44 c2.5 0 4.54 2.06 4.54 4.56 s-2.04 4.54 -4.54 4.54 s-4.56 -2.04 -4.56 -4.54 s2.06 -4.56 4.56 -4.56 z M41.88 16 c1.66 0 3 -1.34 3 -3 c0 -1.68 -1.34 -3.02 -3 -3.02 c-1.68 0 -3.02 1.34 -3.02 3.02 c0 1.66 1.34 3 3.02 3 z M50.519999999999996 10.66 l0 -4.68 l15.3 0 l0 4.68 l-3.76 0 l0 -1.56 l2.2 0 l0 -1.56 l-12.18 0 l0 1.56 l5.32 0 l-0.02 9.34 l1.56 0 l0 -9.34 l1.56 0 l0 10.9 l-4.68 0 l0 -9.34 l-5.3 0 z M83.92 5.98 l0 4.68 l-10.62 0 l0 1.56 l7.88 0 l0 1.56 l-9.44 0 l0 -4.68 l10.62 0 l0 -1.56 l-12.18 0 l0 10.9 l12.18 0 l0 -1.56 l-10.62 0 l0 -1.56 l12.18 0 l0 4.68 l-15.3 0 l0 -14.02 l15.3 0 z M102.02 5.98 l0 4.7 l-8.6 0 c-1.18 0.1 -2.08 1.12 -2.08 2.32 s0.9 2.18 2.08 2.32 l5.48 0 l0 1.56 l-5.48 0 c-2.02 -0.16 -3.62 -1.82 -3.62 -3.9 c0 -2 1.54 -3.7 3.54 -3.86 l7.12 0 l0 -1.58 l-7.04 0 l0 0.02 c-2.86 0.16 -5.14 2.52 -5.14 5.44 c0 2.9 2.28 5.28 5.14 5.44 l7.04 0 l0 -3.12 l1.56 0 l0 4.68 l-8.6 0 c-3.74 -0.16 -6.7 -3.24 -6.7 -7 c0 -3.78 2.96 -6.84 6.7 -7 z M104.82 10.66 l0 -4.68 l15.3 0 l0 4.68 l-3.76 0 l0 -1.56 l2.2 0 l0 -1.56 l-12.18 0 l0 1.56 l5.32 0 l-0.02 9.34 l1.56 0 l0 -9.34 l1.56 0 l0 10.9 l-4.68 0 l0 -9.34 l-5.3 0 z M127.6 20 l-4.68 0 l0 -14.02 l4.68 0 l0 10.9 l-1.56 0 l0 -9.34 l-1.56 0 l0 10.9 l3.12 0 l0 1.56 z M141.01999999999998 12.84 l0 -6.86 l4.68 0 l0 14.02 l-4.68 0 l-7.5 -8.68 l0 -2.4 l8.22 9.52 l2.4 0 l0 -10.9 l-1.56 0 l0 9.5 l-8.22 -9.5 l-2.4 0 l0 10.9 l1.56 0 l0 -4.72 l1.56 1.8 l0 4.48 l-4.68 0 l0 -14.02 l4.68 0 z M154.85999999999999 12.2 l8.96 0 l0 7.8 l-8.62 0 c-3.74 -0.16 -6.7 -3.24 -6.7 -7 c0 -3.78 2.96 -6.86 6.7 -7.02 l8.62 0 l0 4.7 l-8.62 0 c-1.18 0.1 -2.08 1.12 -2.08 2.3 c0 1.22 0.9 2.18 2.08 2.34 l5.48 0 l0 1.56 l-5.48 0 c-2.02 -0.16 -3.62 -1.82 -3.62 -3.9 c0 -2 1.54 -3.72 3.54 -3.88 l7.12 0 l0 -1.56 l-7.04 0 c-2.86 0.16 -5.14 2.54 -5.14 5.46 c0 2.9 2.28 5.28 5.14 5.44 l7.04 0 l0 -4.68 l-7.38 0 l0 -1.56 z M186.31999999999996 5.98 l5.66 0 l-5.34 7.68 l0 6.34 l-4.68 0 l0 -6.3 l-5.34 -7.72 l5.68 0 l1.12 1.64 l-0.92 1.38 l-1 -1.46 l-1.9 0 l3.92 5.66 l0.02 0.02 l0 5.22 l1.6 0 l0 -5.24 l3.86 -5.66 l-1.9 0 l-2.8 4.06 l-0.9 -1.28 z M201.61999999999995 5.359999999999999 c4.2 0 7.62 3.42 7.62 7.64 s-3.42 7.62 -7.62 7.62 c-4.22 0 -7.64 -3.4 -7.64 -7.62 s3.42 -7.64 7.64 -7.64 z M201.61999999999995 19.08 c3.36 0 6.08 -2.72 6.08 -6.08 s-2.72 -6.1 -6.08 -6.1 c-3.38 0 -6.1 2.74 -6.1 6.1 s2.72 6.08 6.1 6.08 z M201.61999999999995 8.44 c2.5 0 4.54 2.06 4.54 4.56 s-2.04 4.54 -4.54 4.54 s-4.56 -2.04 -4.56 -4.54 s2.06 -4.56 4.56 -4.56 z M201.61999999999995 16 c1.66 0 3 -1.34 3 -3 c0 -1.68 -1.34 -3.02 -3 -3.02 c-1.68 0 -3.02 1.34 -3.02 3.02 c0 1.66 1.34 3 3.02 3 z M227.21999999999997 5.98 l0 6.44 c0 4.16 -3.4 7.58 -7.6 7.58 c-4.12 0 -7.42 -3.24 -7.58 -7.32 l0 -6.7 l4.58 0 l0 6.44 c0 1.66 1.34 3 3 3 s2.94 -1.3 3 -2.92 l0 -6.52 l1.52 0 l0 6.44 c0 2.48 -2.02 4.52 -4.52 4.52 c-2.46 0 -4.5 -2 -4.5 -4.48 l-0.02 0 l0 -4.94 l-1.5 0 l0 5 c0.06 3.28 2.74 5.92 6.02 5.92 c3.34 0 6.02 -2.7 6.02 -6.02 l0 -6.44 l1.58 0 z  M245.39999999999995 20 l-5.4 0 l-1.82 -3.14 l-3.5 0 l0 3.14 l-4.66 0 l0 -7.8 l11.44 0.02 c1.3 0 2.34 -1.06 2.34 -2.34 c0 -1.3 -1.04 -2.34 -2.34 -2.34 l-9.88 0 l0 1.56 l9.88 0 c0.42 0.02 0.74 0.36 0.74 0.78 s-0.32 0.76 -0.74 0.78 l-0.02 0 l-0.02 0 l-11.4 0 l0 -4.68 l11.44 0 c2.16 0 3.9 1.74 3.9 3.9 c0 2.14 -1.74 3.9 -3.9 3.9 l-9.88 -0.02 l0 4.68 l1.56 0 l0 -3.14 l5.94 0 c0.64 1.16 1.72 2.94 1.82 3.14 l1.8 0 c-0.16 -0.22 -1.08 -1.86 -1.82 -3.14 l1.8 0 c0.66 1.14 1.32 2.32 1.86 3.2 z M265.8999999999999 15.16 l1.14 -1.06 l6.42 5.9 l-6.9 0 l-5.24 -4.8 l8.12 -7.66 l-2.26 0 l-5.86 5.66 l0 -5.66 l-1.56 0 l0 10.9 l2.76 0 l1.72 1.56 l-6.04 0 l0 -14.02 l4.68 0 l0 3.44 l3.68 -3.44 l6.82 0 l-9.78 9.2 l3.56 3.26 l2.3 0 z M286.87999999999994 12.84 l0 -6.86 l4.68 0 l0 14.02 l-4.68 0 l-7.5 -8.68 l0 -2.4 l8.22 9.52 l2.4 0 l0 -10.9 l-1.56 0 l0 9.5 l-8.22 -9.5 l-2.4 0 l0 10.9 l1.56 0 l0 -4.72 l1.56 1.8 l0 4.48 l-4.68 0 l0 -14.02 l4.68 0 z M301.99999999999994 5.359999999999999 c4.2 0 7.62 3.42 7.62 7.64 s-3.42 7.62 -7.62 7.62 c-4.22 0 -7.64 -3.4 -7.64 -7.62 s3.42 -7.64 7.64 -7.64 z M301.99999999999994 19.08 c3.36 0 6.08 -2.72 6.08 -6.08 s-2.72 -6.1 -6.08 -6.1 c-3.38 0 -6.1 2.74 -6.1 6.1 s2.72 6.08 6.1 6.08 z M301.99999999999994 8.44 c2.5 0 4.54 2.06 4.54 4.56 s-2.04 4.54 -4.54 4.54 s-4.56 -2.04 -4.56 -4.54 s2.06 -4.56 4.56 -4.56 z M301.99999999999994 16 c1.66 0 3 -1.34 3 -3 c0 -1.68 -1.34 -3.02 -3 -3.02 c-1.68 0 -3.02 1.34 -3.02 3.02 c0 1.66 1.34 3 3.02 3 z M331.09999999999997 5.98 l5.4 0 c-0.3 0.5 -2.32 4.02 -4.26 7.4 c-1.14 1.98 -2.4 4.2 -3.82 6.62 l-1.8 0 l-1.58 -2.7 c-0.8 -1.46 -1.72 -2.96 -2.04 -3.54 c-0.94 1.62 -1.82 3.16 -2.48 4.34 c-0.38 0.68 -0.76 1.32 -1.1 1.9 l-1.8 0 c0.16 -0.32 4.92 -8.64 5.38 -9.34 c0.04 0.04 1.16 1.98 2.28 3.92 l2.24 3.86 c0.96 -1.66 2.52 -4.4 3.86 -6.7 l2.42 -4.2 l-1.8 0 c-1.76 3.1 -3.02 5.3 -4.46 7.74 l-2.24 -3.8 l-2.3 -3.94 c-2.5 4.32 -3.98 6.96 -6.28 10.9 c-0.14 -0.24 -7.24 -12.44 -7.22 -12.46 l5.4 0 l2.72 4.68 l-0.9 1.56 l-2.72 -4.68 l-1.8 0 c0.4 0.64 4.14 7.16 4.52 7.78 l3.92 -6.8 l1.46 -2.54 l1.8 0 c0.18 0.34 2.78 4.8 3.64 6.2 c1.12 -1.92 1.98 -3.44 2.6 -4.54 z M340.05999999999995 7.539999999999999 l0 7.78 l13.82 0 l0 4.68 l-15.38 0 l0 -1.56 l13.84 0 l0 -1.56 l-13.84 0 l0 -10.9 l4.68 0 l0 7.8 l-1.56 0 l0 -6.24 l-1.56 0 z M371.97999999999996 5.98 l0 4.68 l-10.62 0 l0 1.56 l7.88 0 l0 1.56 l-9.44 0 l0 -4.68 l10.62 0 l0 -1.56 l-12.18 0 l0 10.9 l12.18 0 l0 -1.56 l-10.62 0 l0 -1.56 l12.18 0 l0 4.68 l-15.3 0 l0 -14.02 l15.3 0 z M374.78 5.98 l8.6 0 c3.74 0.16 6.7 3.24 6.7 7 c0 3.78 -2.96 6.86 -6.7 7.02 l-8.6 0 l0 -10.9 l8.6 0 c2.02 0.16 3.62 1.82 3.62 3.9 c0 2 -1.54 3.72 -3.54 3.88 l-5.56 0 l0 -4.92 l1.56 0 l0 3.36 l3.92 -0.02 c1.18 -0.1 2.08 -1.12 2.08 -2.3 c0 -1.02 -0.64 -1.86 -1.54 -2.2 c-0.34 -0.14 -0.54 -0.14 -1.08 -0.14 l-6.5 0 l0 7.78 l7.04 0 c2.86 -0.16 5.14 -2.52 5.14 -5.46 c0 -2.9 -2.28 -5.28 -5.14 -5.44 l-8.6 0 l0 -1.56 z M398.44 12.2 l8.96 0 l0 7.8 l-8.62 0 c-3.74 -0.16 -6.7 -3.24 -6.7 -7 c0 -3.78 2.96 -6.86 6.7 -7.02 l8.62 0 l0 4.7 l-8.62 0 c-1.18 0.1 -2.08 1.12 -2.08 2.3 c0 1.22 0.9 2.18 2.08 2.34 l5.48 0 l0 1.56 l-5.48 0 c-2.02 -0.16 -3.62 -1.82 -3.62 -3.9 c0 -2 1.54 -3.72 3.54 -3.88 l7.12 0 l0 -1.56 l-7.04 0 c-2.86 0.16 -5.14 2.54 -5.14 5.46 c0 2.9 2.28 5.28 5.14 5.44 l7.04 0 l0 -4.68 l-7.38 0 l0 -1.56 z M425.5 5.98 l0 4.68 l-10.62 0 l0 1.56 l7.88 0 l0 1.56 l-9.44 0 l0 -4.68 l10.62 0 l0 -1.56 l-12.18 0 l0 10.9 l12.18 0 l0 -1.56 l-10.62 0 l0 -1.56 l12.18 0 l0 4.68 l-15.3 0 l0 -14.02 l15.3 0 z"></path>
    </g>
    <g
            transform="matrix(2.095149517059326,0,0,2.095149517059326,96.90485175779226,-3.0431719867802585)"
            fill="#ffffff">
        <path d="M9.16 21.38 c-0.08 0 -0.18 -0.06 -0.22 -0.14 l-0.6 -1.24 c-0.28 0.04 -0.58 0.06 -0.9 0.06 c-1.18 0 -2.28 -0.3 -3.26 -0.86 s-1.76 -1.34 -2.32 -2.32 s-0.86 -2.08 -0.86 -3.28 s0.3 -2.3 0.86 -3.28 s1.34 -1.74 2.3 -2.3 c0.98 -0.56 2.08 -0.84 3.28 -0.84 s2.3 0.28 3.28 0.84 c0.96 0.56 1.76 1.32 2.32 2.3 s0.84 2.08 0.84 3.28 c0 1.18 -0.28 2.3 -0.84 3.28 c-0.46 0.78 -1.04 1.42 -1.74 1.94 l1 2.14 c0.04 0.04 0.08 0.1 0.08 0.16 c0 0.14 -0.12 0.26 -0.26 0.26 l-2.96 0 z M7 17.14 l-0.8 -1.68 c-0.04 -0.04 -0.06 -0.1 -0.06 -0.16 c0 -0.14 0.12 -0.26 0.26 -0.26 l2.94 0 c0.1 0 0.18 0.06 0.24 0.14 l0.36 0.76 c0.12 -0.16 0.22 -0.34 0.32 -0.52 c0.3 -0.54 0.44 -1.16 0.44 -1.82 s-0.14 -1.26 -0.44 -1.8 c-0.28 -0.54 -0.68 -0.98 -1.18 -1.28 c-0.48 -0.32 -1.02 -0.46 -1.6 -0.46 s-1.14 0.14 -1.64 0.46 c-0.52 0.32 -0.92 0.74 -1.22 1.28 c-0.28 0.54 -0.44 1.14 -0.44 1.8 s0.16 1.26 0.46 1.8 s0.7 0.98 1.2 1.3 c0.36 0.22 0.76 0.38 1.16 0.44 z M21.1 20 c-1.08 0 -1.86 -0.22 -2.68 -0.66 c-0.8 -0.44 -1.44 -1.06 -1.88 -1.88 c-0.44 -0.8 -0.66 -1.76 -0.66 -2.86 l0 -7.04 c0 -0.14 0.12 -0.24 0.26 -0.24 l2.6 0 c0.14 0 0.24 0.1 0.24 0.24 l0 7.04 c0 0.8 0.22 1.42 0.64 1.86 s0.8 0.66 1.5 0.66 s1.06 -0.22 1.46 -0.64 c0.4 -0.44 0.6 -1.08 0.6 -1.88 l0 -7.04 c0 -0.14 0.12 -0.24 0.26 -0.24 l2.6 0 c0.14 0 0.26 0.1 0.26 0.24 l0 7.04 c0 1.1 -0.22 2.06 -0.66 2.86 c-0.42 0.82 -1.06 1.44 -1.86 1.88 s-1.6 0.66 -2.68 0.66 z M28.560000000000002 20 c-0.14 0 -0.26 -0.12 -0.26 -0.26 l0 -11.98 c0 -0.14 0.12 -0.26 0.26 -0.26 l2.6 0 c0.14 0 0.26 0.12 0.26 0.26 l0 11.98 c0 0.14 -0.12 0.26 -0.26 0.26 l-2.6 0 z"></path>
    </g>
    <g
            transform="matrix(0.3633866608142853,0,0,0.3633866608142853,162.74019918760212,9.867856297652907)"
            fill="#ffffff">
        <g xmlns="http://www.w3.org/2000/svg">
            <path d="M84.3,28.9c-0.5-0.7-1.2-1.2-1.9-1.7c-0.7-0.5-1.5-0.8-2.5-1.3c0.7-0.3,1.2-0.5,1.6-0.6c0.5-0.2,1.1-0.4,1.6-0.6   c1.7-0.7,1.9-2.3,0.5-3.5c-0.6-0.5-1.3-0.7-2.1-0.9c-1-0.2-2.1-0.3-3.1-0.5c0.7-0.5,1.4-0.8,2.1-1.1c0.9-0.4,1.8-0.7,2.5-1.2   c0.4-0.3,0.7-1,0.6-1.4c-0.2-0.5-0.8-0.8-1.3-1.1c-0.3-0.1-0.7,0-1.1,0c-2.3,0.1-4.7,0.2-7,0.4c-1.2,0.1-2-0.4-2.7-1.4   c-0.5-0.8-1.1-1.5-1.8-2.1C62.6,5.3,54.3,4.3,45.4,8c-2,0.9-4.1,1.5-6.4,1.4c-0.6,0-1.3,0.1-1.8,0.4c-3.6,1.6-6.8,3.7-9.5,6.5   c-0.6,0.6-1.7,1.1-1,2.2c0.7,1.2,1.9,0.9,2.9,0.6c1.3-0.4,2.6-1,3.9-1.6c0.5-0.2,0.9-0.4,1.4-0.5c3.6-0.4,7.2-0.8,10.8-1.1   c0,0.2,0,0.3,0.1,0.5c-4.3,1.4-8.5,2.7-12.8,4.2c-1.5,0.5-3,1.1-4.5,1.7c-1.1,0.5-1.2,1.3-0.1,1.9c0.4,0.2,0.8,0.3,1.3,0.4   c4.6,0.9,9.2,0.3,13.7-0.6c3.6-0.8,7.2-1.3,10.8-1.7c1.3-0.2,2.6,0.5,3.2,1.7c0.5,1.2,0.5,2.6-0.4,3.8c-1.8,2.6-4.4,4.2-7.2,5.2   c-3.5,1.2-7,2.1-10.5,3.3c-4.2,1.5-8.4,3-12,5.6c-5.1,3.7-8.2,8.9-10.7,14.5c-2.6,5.9-3.2,11.9,0.4,17.8c1.5,2.4,2.9,4.8,5.3,6.5   c5.5,3.9,11.7,5.2,18.3,4.3c5.2-0.7,10.2-1.9,15.3-2.9c5.8-1.1,11.5-1.5,17.1,0.6c2,0.7,3.7,1.5,3.4,4.1c0,0.3,0.3,0.8,0.6,0.9   c0.3,0.1,0.8,0,1.1-0.2c2.4-2.2,2.7-5.3,0.8-8c-2.7-3.9-6.6-5.5-11.1-6c-1-0.1-1.5-0.4-1.3-1.5c0.2-1.3-0.4-1.9-1.8-1.9   c-0.4,0-0.9-0.2-1.1-0.5c-1.1-1.8-1.2-2-3.2-1.3c-2,0.7-4,1.4-6,2.2c0-0.6-0.1-1.1-0.1-1.5c-0.3-2.1-1.4-2.8-3.4-2   c-0.5,0.2-0.9,0.5-1.3,0.6c-2,0.8-4.1,1.7-6.1,2.4c-0.8,0.3-1.8,0.2-2.8,0.3c0.2-1.2,0.5-2.2,0.5-3.1c0.1-1.9-0.5-2.3-2.4-1.7   c-1.7,0.6-3.4,1.3-5.2,1.9c-0.8,0.3-1.7,0.4-2.3,0.5c-0.4-1.2-0.5-2.3-1.1-2.9c-1.2-1-0.8-1.8,0.1-2.5c1.4-1.2,2.9-2.2,4.5-3.2   c2.2-1.4,2.3-1.4,1.8-3.9c-0.3-1.9-0.1-2.3,1.8-2.6c0.5-0.1,1-0.1,1.5-0.2c1.6-0.2,3.3-0.3,4.9-0.6c1.9-0.3,2.3-1,2-2.9   c-0.1-0.4-0.1-0.8-0.1-1.2c1.7,0,3.3-0.1,4.9,0c3,0.2,6,0.8,9,0.7c3.6-0.1,4-0.6,4.9-4.1c0-0.1,0.1-0.1,0.2-0.3   c0.4,0.1,0.9,0.2,1.4,0.2c2.5,0.1,4.9,0.4,7.4,0.3c2.3,0,2.9-0.9,2.3-3.1c-0.2-0.8-0.6-1.6-0.9-2.4c1.5-0.1,3-0.1,4.4-0.3   c2.2-0.3,2.9-1.8,1.6-3.7c-0.5-0.7-1.2-1.3-1.9-1.9c-0.2-0.2-0.5-0.4-0.9-0.7c1.7-0.4,3.1-0.7,4.5-1.1   C84.8,31.1,85.2,30.1,84.3,28.9z M70.9,75.5c3.2,0.8,5.5,2.7,7.2,5.4c0.7,1.2,0.5,2.5-0.4,3.9c-1-1.9-2.6-2.7-4.4-3.4   c-5.8-2.1-11.7-2-17.7-0.9c-5.1,1-10.1,2.2-15.2,2.9c-6.3,0.9-12.5,0.2-17.6-4c-5-4.1-8.1-10.4-6.4-17.2c2-7.6,5.9-14.2,12.2-19   c3.7-2.8,8.2-4.2,12.6-5.7c3.2-1.1,6.5-1.9,9.6-3.1c2.7-1,5.3-2.5,7.1-5c2.6-3.5,0.8-8.4-3.6-9c-2.1-0.3-4.4,0.1-6.5,0.4   c-3.3,0.6-6.6,1.5-9.9,2c-2,0.3-4.1,0.2-6.1,0.4c0-0.1-0.1-0.2-0.1-0.3c0.4-0.2,0.8-0.4,1.3-0.5c5.5-1.6,11-3.3,16.5-4.9   c0.4-0.1,0.8-0.5,1.2-0.8c-0.4-0.5-0.7-1.4-1.2-1.5c-1.4-0.4-2.9-0.8-4.4-0.8c-3.8,0.1-7.5,0.4-11.2,0.7c-0.7,0.1-1.4,0.5-2.4,0.8   c0.3-0.4,0.5-0.6,0.7-0.8c2.8-2.1,5.7-3.9,9.5-3.9c1.8,0,3.6-0.8,5.3-1.5c5.6-2.4,11.2-2.7,16.8-0.2c3.2,1.4,5.8,3.7,7.9,6.7   c1.8,2.6,2.2,5,1.7,7.9c-0.8,4.4-2.7,8-6.7,10.4c-4.4,2.7-9.2,4.1-14,5.4c-6.9,1.9-13.6,4.3-19.5,8.5c-3.9,2.8-7.8,5.7-9.4,10.5   c-2.1,6.2-1,11.2,4.6,14.4c4.7,2.7,9.8,3.3,15.1,2.9c4.1-0.3,8.1-1.1,12.2-1.5C60.8,74.3,65.9,74.3,70.9,75.5z M79.4,30.8   c-0.7,0.2-1.4,0.2-2,0.5c-0.4,0.2-1,0.6-1,1c0,0.4,0.4,0.9,0.8,1.2c1,0.8,2.1,1.3,3.1,2.1c0.9,0.8,0.8,1.4-0.4,1.6   c-1.5,0.3-3.1,0.3-4.7,0.3c-1.2,0.1-1.6,0.5-1.2,1.7c0.3,0.7,0.7,1.4,1,2.1c0.5,1.3,0.2,1.9-1.2,1.9c-2.8-0.1-5.6-0.3-8.4-0.6   c-0.9-0.1-1.3,0.1-1.5,1c-0.8,3.1-1.1,3.5-4.3,3.4c-2.6,0-5.3-0.5-7.9-0.7c-1.9-0.1-3.8-0.2-5.6-0.1c-1.2,0-0.9,1.1-1,1.7   c-0.1,2.3-0.1,2.3-2.4,2.6c-1.9,0.3-3.8,0.5-5.7,0.7c-1.6,0.1-2.1,1-2.2,2.4c0,0.2-0.1,0.5,0,0.7c0.9,2.3-0.6,3.3-2.3,4.2   c-1.2,0.7-2.3,1.5-3.4,2.4c-1,0.8-1.5,2-1.4,3.4c0,0.3,0.1,0.9,0.3,1c1.3,0.6,1.2,1.8,1.4,2.9c0.1,0.5,0.9,1.1,1.3,1.1   c1.2,0,2.4-0.2,3.5-0.5c1.7-0.5,3.3-1.2,5.3-2c-0.3,1.1-0.5,2-0.7,2.8c-0.4,1.7,0,2.2,1.8,2.2c3.6,0.1,6.7-1.4,9.8-2.9   c0.6-0.3,1.3-0.5,2.2-0.9c0,1.1,0,1.9,0,2.7c0.1,1.5,0.5,1.9,2,1.4c1.9-0.6,3.7-1.4,5.5-2.1c0.5-0.2,1.1-0.3,1.8-0.5   c0,2,1.3,2.3,2.8,2c0,0.6,0,1,0,1.5c-3,0-5.9-0.2-8.8,0c-4.1,0.3-8.1,1-12.1,1.5c-4.5,0.5-8.9,0.2-13.1-1.6   c-1.7-0.8-3.4-1.9-4.7-3.3c-0.8-0.8-1.4-2.2-1.5-3.4c-0.7-4.8,1.3-8.7,4.7-12.1c5.5-5.4,12.2-8.8,19.5-11.1   c4.1-1.3,8.3-2.4,12.4-3.8c2.7-1,5.3-2.3,7.7-3.8C73,32.9,74.7,28.7,75,24c0.2-2.2,0.4-4.5-1-6.8c1.9,0,3.5,0,5.5,0   c-0.9,0.4-1.6,0.7-2.4,1c-0.9,0.3-1.6,0.9-1.5,2c0.1,1,1,1.1,1.8,1.2c1.3,0.2,2.7,0.3,4,0.5c0.5,0.1,1.1,0.3,1.6,0.5   c0,0.1,0,0.3,0,0.4c-1.5,0.6-3,1.1-4.5,1.7c-0.7,0.3-1.5,0.4-1.5,1.4c0,1.1,0.9,1.1,1.6,1.4c1.6,0.5,3.2,1.1,4.7,2.5   C81.9,30.2,80.7,30.5,79.4,30.8z"></path>
            <path d="M60.9,14.3c-0.2-0.5-0.2-1.2-0.5-1.4c-1.2-0.8-2.4-1.4-3.9-2.1c-0.4,0.5-1,0.8-1,1.1c0,0.4,0.3,1.1,0.6,1.3   c1.1,0.6,2.2,1,3.3,1.3C59.9,14.7,60.4,14.4,60.9,14.3z"></path>
        </g>
    </g>
    <g
            transform="matrix(1.9046810865402222,0,0,1.9046810865402222,202.3814454029647,3.200373483956902)"
            fill="#ffffff">
        <path d="M10.620000000000001 4.880000000000001 l5.8 0 c0.82 0 1.48 0.66 1.48 1.48 c0 0.8 -0.66 1.46 -1.48 1.46 l-5.82 0 c-0.86 0 -1.56 0.7 -1.56 1.58 c0 0.86 0.7 1.56 1.56 1.56 l4 0 c2.5 0 4.52 2.02 4.52 4.52 c0 0.34 -0.28 0.6 -0.6 0.6 c-0.34 0 -0.62 -0.26 -0.62 -0.6 c0 -1.82 -1.48 -3.3 -3.3 -3.3 l-4 0 c-1.54 0 -2.78 -1.24 -2.78 -2.78 s1.24 -2.8 2.78 -2.8 l5.82 0 c0.14 0 0.26 -0.1 0.26 -0.24 s-0.12 -0.26 -0.26 -0.26 l-5.8 0 c-1.82 0 -3.3 1.48 -3.3 3.3 c0 0.34 -0.28 0.6 -0.62 0.6 c-0.32 0 -0.6 -0.26 -0.6 -0.6 c0 -2.5 2.02 -4.52 4.52 -4.52 z M10.620000000000001 12.7 l4 0 c1.54 0 2.78 1.26 2.78 2.8 s-1.24 2.78 -2.78 2.78 l-6.4 0 c-0.14 0 -0.26 0.12 -0.26 0.26 s0.12 0.24 0.26 0.24 l6.38 0 c0.34 0 0.6 0.28 0.6 0.62 c0 0.32 -0.26 0.6 -0.6 0.6 l-6.38 0 c-0.82 0 -1.48 -0.66 -1.48 -1.46 s0.62 -1.48 1.42 -1.48 l6.46 0 c0.86 0 1.56 -0.7 1.56 -1.56 c0 -0.88 -0.7 -1.58 -1.56 -1.58 l-4 0 c-0.34 0 -0.6 -0.28 -0.6 -0.6 c0 -0.34 0.26 -0.62 0.6 -0.62 z M24.220000000000002 4.880000000000001 l7.42 0 c0.8 0 1.46 0.66 1.46 1.46 s-0.62 1.48 -1.42 1.48 l-7.46 0 c-0.3 0 -0.56 0.24 -0.56 0.56 c0 0.3 0.26 0.56 0.56 0.56 c0.34 0 0.62 0.26 0.62 0.6 s-0.28 0.62 -0.62 0.62 c-0.98 0 -1.76 -0.8 -1.76 -1.78 s0.78 -1.78 1.76 -1.78 l7.42 0 c0.14 0 0.24 -0.12 0.24 -0.26 s-0.1 -0.24 -0.24 -0.24 l-7.42 0 c-1.26 0 -2.28 1.02 -2.28 2.28 s1.02 2.28 2.28 2.28 l5.38 0 c0.98 0 1.78 0.8 1.78 1.8 c0 0.98 -0.8 1.76 -1.78 1.76 l-5.38 0 c-1.26 0 -2.28 1.02 -2.28 2.28 s1.02 2.28 2.28 2.28 l8.26 0 c0.34 0 0.62 0.28 0.62 0.62 s-0.28 0.6 -0.62 0.6 l-8.26 0 c-1.94 0 -3.5 -1.56 -3.5 -3.5 c0 -1.92 1.56 -3.5 3.5 -3.5 l5.38 0 c0.32 0 0.56 -0.24 0.56 -0.54 c0 -0.34 -0.24 -0.58 -0.56 -0.58 l-5.38 0 c-1.92 0 -3.5 -1.58 -3.5 -3.5 c0 -1.94 1.58 -3.5 3.5 -3.5 z M24.220000000000002 14.74 l5.38 0 c0.34 0 0.62 0.26 0.62 0.6 s-0.28 0.62 -0.62 0.62 l-5.38 0 c-0.3 0 -0.56 0.24 -0.56 0.54 c0 0.32 0.26 0.56 0.56 0.56 c0.34 0 0.6 0.28 0.6 0.62 c0 0.32 -0.26 0.6 -0.6 0.6 c-0.98 0 -1.78 -0.8 -1.78 -1.78 s0.8 -1.76 1.78 -1.76 z M42.400000000000006 4.619999999999999 c2.1 0 4.06 0.82 5.52 2.28 c0.24 0.24 0.24 0.62 0 0.86 c-0.22 0.24 -0.62 0.24 -0.84 0 c-1.26 -1.24 -2.9 -1.92 -4.68 -1.94 c-3.62 0 -6.6 2.98 -6.6 6.6 c0 3.64 2.98 6.62 6.6 6.62 c1.78 0 3.44 -0.7 4.68 -1.94 c0.14 -0.14 0.08 -0.3 0 -0.38 c-0.1 -0.1 -0.26 -0.12 -0.38 0 c-1.16 1.16 -2.68 1.76 -4.3 1.76 c-3.34 0 -6.04 -2.7 -6.04 -6.06 c0 -1.6 0.62 -3.12 1.76 -4.28 c0.24 -0.22 0.62 -0.22 0.86 0 c0.24 0.24 0.24 0.62 0 0.86 c-0.92 0.92 -1.42 2.14 -1.42 3.42 c0 2.68 2.18 4.86 4.84 4.86 c1.3 0 2.52 -0.5 3.44 -1.42 c0.62 -0.62 1.5 -0.6 2.1 0 c0.64 0.64 0.62 1.48 0 2.1 c-1.48 1.48 -3.44 2.28 -5.54 2.28 c-4.3 0 -7.8 -3.5 -7.8 -7.82 c0 -4.3 3.5 -7.8 7.8 -7.8 z M61.760000000000005 4.880000000000001 c0.8 0 1.44 0.64 1.46 1.44 l0 7.32 c0 1.76 -0.68 3.42 -1.94 4.68 c-1.28 1.28 -2.98 1.92 -4.66 1.92 c-1.7 0 -3.38 -0.64 -4.66 -1.92 c-1.26 -1.26 -1.94 -2.92 -1.94 -4.68 c0 -0.32 0.26 -0.6 0.6 -0.6 c0.32 0 0.6 0.28 0.6 0.6 c0 1.44 0.56 2.8 1.58 3.82 c2.1 2.12 5.54 2.12 7.64 0 c1.02 -1.02 1.58 -2.38 1.58 -3.82 l0 -7.3 c0 -0.14 -0.12 -0.26 -0.26 -0.26 c-0.16 0 -0.28 0.12 -0.28 0.26 l0 7.3 c0 1.3 -0.5 2.52 -1.42 3.44 s-2.14 1.42 -3.44 1.42 s-2.52 -0.5 -3.44 -1.42 s-1.42 -2.14 -1.42 -3.44 l0 -8.16 c0 -0.34 0.26 -0.6 0.58 -0.6 c0.34 0 0.6 0.26 0.6 0.6 l0 8.16 c0 0.98 0.38 1.9 1.08 2.6 s1.62 1.08 2.6 1.08 s1.9 -0.38 2.6 -1.08 c0.68 -0.7 1.08 -1.62 1.08 -2.6 l0 -7.32 c0 -0.8 0.66 -1.44 1.46 -1.44 z M65.42 4.880000000000001 l7.28 0 c2.48 0.02 4.48 2.06 4.48 4.54 c0 2.32 -1.78 4.24 -4.04 4.48 l3.62 3.6 c0.54 0.54 0.54 1.54 0 2.08 s-1.48 0.58 -2.04 0.02 c-0.52 -0.54 -2.52 -2.52 -2.52 -2.52 c-0.24 -0.24 -0.24 -0.62 0 -0.86 s0.62 -0.24 0.86 0 l2.48 2.48 c0.1 0.1 0.26 0.12 0.36 0.02 s0.12 -0.24 0 -0.36 l-4.64 -4.62 c-0.12 -0.12 -0.18 -0.26 -0.18 -0.42 c0 -0.34 0.28 -0.62 0.62 -0.62 l0.96 0 c1.82 0 3.32 -1.48 3.32 -3.3 s-1.5 -3.3 -3.32 -3.3 l-6.62 0 l0 3.3 c0 0.34 -0.28 0.6 -0.62 0.6 s-0.6 -0.26 -0.6 -0.6 l0 -3.92 c0 -0.32 0.26 -0.6 0.6 -0.6 z M72.68 6.6 c1.54 0 2.8 1.26 2.8 2.8 s-1.26 2.78 -2.8 2.78 l-3.34 0 c-1.82 0 -3.3 1.48 -3.3 3.3 l0 3.92 c0 0.32 -0.28 0.6 -0.62 0.6 s-0.6 -0.28 -0.6 -0.6 l0 -3.92 c0 -2.5 2.02 -4.52 4.52 -4.52 l3.34 0 c0.88 0 1.58 -0.7 1.58 -1.56 c0 -0.88 -0.7 -1.58 -1.58 -1.58 c-0.34 0 -0.6 -0.26 -0.6 -0.6 s0.26 -0.62 0.6 -0.62 z M82.28 4.880000000000001 l7.42 0 c0.8 0 1.46 0.66 1.46 1.46 s-0.62 1.48 -1.42 1.48 l-7.46 0 c-0.3 0 -0.56 0.24 -0.56 0.56 c0 0.3 0.26 0.56 0.56 0.56 c0.34 0 0.62 0.26 0.62 0.6 s-0.28 0.62 -0.62 0.62 c-0.98 0 -1.76 -0.8 -1.76 -1.78 s0.78 -1.78 1.76 -1.78 l7.42 0 c0.14 0 0.24 -0.12 0.24 -0.26 s-0.1 -0.24 -0.24 -0.24 l-7.42 0 c-1.26 0 -2.28 1.02 -2.28 2.28 s1.02 2.28 2.28 2.28 l5.38 0 c0.98 0 1.78 0.8 1.78 1.8 c0 0.98 -0.8 1.76 -1.78 1.76 l-5.38 0 c-1.26 0 -2.28 1.02 -2.28 2.28 s1.02 2.28 2.28 2.28 l8.26 0 c0.34 0 0.62 0.28 0.62 0.62 s-0.28 0.6 -0.62 0.6 l-8.26 0 c-1.94 0 -3.5 -1.56 -3.5 -3.5 c0 -1.92 1.56 -3.5 3.5 -3.5 l5.38 0 c0.32 0 0.56 -0.24 0.56 -0.54 c0 -0.34 -0.24 -0.58 -0.56 -0.58 l-5.38 0 c-1.92 0 -3.5 -1.58 -3.5 -3.5 c0 -1.94 1.58 -3.5 3.5 -3.5 z M82.28 14.74 l5.38 0 c0.34 0 0.62 0.26 0.62 0.6 s-0.28 0.62 -0.62 0.62 l-5.38 0 c-0.3 0 -0.56 0.24 -0.56 0.54 c0 0.32 0.26 0.56 0.56 0.56 c0.34 0 0.6 0.28 0.6 0.62 c0 0.32 -0.26 0.6 -0.6 0.6 c-0.98 0 -1.78 -0.8 -1.78 -1.78 s0.8 -1.76 1.78 -1.76 z"></path>
    </g>
</svg>