<svg xmlns="http://www.w3.org/2000/svg" width="250" height="83.75706764298197"
     viewBox="0 0 380.35455283803594 74.25963172580776" class="looka-1j8o68f">
    <defs id="SvgjsDefs3181"></defs>
    <g id="SvgjsG3182" featurekey="JKiIdh-0"
       transform="matrix(0.8688691258430481,0,0,0.8688691258430481,-4.5050862636654765,-4.576333752407729)"
       fill="#ffffff">
        <path xmlns="http://www.w3.org/2000/svg"
              d="M21.81,81.25h52.38V30.331L66.103,20l-3.883-4.962l-0.226-0.288H21.81V81.25z M62.379,17.675l2.734,3.494L71.9,29.84h-9.521  V17.675z M23.31,16.25h37.569v15.09H72.69v48.41H23.31V16.25z"></path>
        <path xmlns="http://www.w3.org/2000/svg"
              d="M63.519,43.32l-5.304-4.127L38.892,64.049l-0.085,0.11l-2.69,8.933l1.554-0.935l5.606-1.142l1.75,2.474l2.943-3.292  l1.795,2.241l9.058-5.694l-0.798-1.27l-7.926,4.981l-2.066-2.579l-2.869,3.208l-1.227-1.733l-2.42,0.492l2.597-1.563L63.519,43.32z   M38.673,69.803l1.214-4.031l2.395,1.861L38.673,69.803z M40.536,64.377l17.942-23.078l2.937,2.285L43.474,66.659L40.536,64.377z"></path>
        <rect xmlns="http://www.w3.org/2000/svg" x="45.094" y="32.782" width="15.008" height="1.5"></rect>
        <rect xmlns="http://www.w3.org/2000/svg" x="45.094" y="45.924" width="4.836" height="1.5"></rect>
        <path xmlns="http://www.w3.org/2000/svg"
              d="M38.349,37.86c2.387,0,4.329-1.941,4.329-4.328s-1.942-4.328-4.329-4.328s-4.328,1.941-4.328,4.328  S35.962,37.86,38.349,37.86z M38.349,30.704c1.56,0,2.829,1.269,2.829,2.828s-1.269,2.828-2.829,2.828s-2.828-1.269-2.828-2.828  S36.79,30.704,38.349,30.704z"></path>
        <path xmlns="http://www.w3.org/2000/svg"
              d="M42.678,46.674c0-2.387-1.942-4.328-4.329-4.328s-4.328,1.941-4.328,4.328s1.941,4.328,4.328,4.328  S42.678,49.061,42.678,46.674z M35.521,46.674c0-1.56,1.269-2.828,2.828-2.828s2.829,1.269,2.829,2.828s-1.269,2.828-2.829,2.828  S35.521,48.233,35.521,46.674z"></path>
        <path xmlns="http://www.w3.org/2000/svg"
              d="M30.351,88.492c0-1.236-1.006-2.242-2.242-2.242s-2.242,1.006-2.242,2.242s1.006,2.242,2.242,2.242  S30.351,89.729,30.351,88.492z M26.366,88.492c0-0.961,0.782-1.742,1.742-1.742s1.742,0.781,1.742,1.742s-0.782,1.742-1.742,1.742  S26.366,89.453,26.366,88.492z"></path>
        <path xmlns="http://www.w3.org/2000/svg"
              d="M8.392,27.813L7.401,29.82l-2.216,0.321l1.604,1.563L6.41,33.912l1.982-1.042l1.982,1.042l-0.378-2.208l1.604-1.563  L9.383,29.82L8.392,27.813z M9.458,31.53l0.251,1.468l-1.318-0.692l-1.318,0.692l0.251-1.468L6.26,30.491l1.473-0.214l0.659-1.336  l0.659,1.336l1.473,0.214L9.458,31.53z"></path>
        <path xmlns="http://www.w3.org/2000/svg"
              d="M28.855,8.205l-0.684-1.386l-0.684,1.386l-1.53,0.222l1.107,1.079l-0.261,1.523l1.368-0.719l1.368,0.719l-0.261-1.523  l1.107-1.079L28.855,8.205z M28.875,10.115l-0.704-0.369l-0.704,0.369l0.134-0.783l-0.57-0.556l0.788-0.114l0.352-0.714l0.352,0.714  l0.788,0.114l-0.57,0.556L28.875,10.115z"></path>
        <path xmlns="http://www.w3.org/2000/svg"
              d="M84.753,68.066l1.107,1.079l-0.261,1.524l1.368-0.72l1.368,0.72l-0.261-1.524l1.107-1.079l-1.53-0.223l-0.684-1.385  l-0.684,1.385L84.753,68.066z M86.967,67.588l0.352,0.713l0.788,0.115l-0.57,0.556l0.134,0.784l-0.704-0.37l-0.704,0.37l0.134-0.784  l-0.57-0.556l0.788-0.115L86.967,67.588z"></path>
        <path xmlns="http://www.w3.org/2000/svg"
              d="M86.967,14.135l-0.902,2.777h-2.919l2.361,1.717l-0.902,2.775l2.362-1.716l2.362,1.716l-0.902-2.775l2.361-1.717h-2.919  L86.967,14.135z M87.839,18.438l0.539,1.658l-1.411-1.024l-1.411,1.024l0.539-1.658l-1.411-1.025h1.745l0.539-1.658l0.539,1.658  h1.745L87.839,18.438z"></path>
        <path xmlns="http://www.w3.org/2000/svg"
              d="M79.011,5.267c-1.236,0-2.242,1.006-2.242,2.242s1.006,2.242,2.242,2.242s2.242-1.006,2.242-2.242  S80.247,5.267,79.011,5.267z M79.011,9.251c-0.96,0-1.742-0.781-1.742-1.742s0.782-1.742,1.742-1.742s1.742,0.781,1.742,1.742  S79.971,9.251,79.011,9.251z"></path>
        <path xmlns="http://www.w3.org/2000/svg"
              d="M86.717,48.986c0,0.985,0.801,1.786,1.786,1.786s1.786-0.801,1.786-1.786S89.488,47.2,88.503,47.2  S86.717,48.001,86.717,48.986z M88.503,47.7c0.709,0,1.286,0.577,1.286,1.286s-0.577,1.286-1.286,1.286s-1.286-0.577-1.286-1.286  S87.794,47.7,88.503,47.7z"></path>
        <path xmlns="http://www.w3.org/2000/svg"
              d="M12.477,17.154c0,1.302,1.059,2.361,2.361,2.361s2.361-1.06,2.361-2.361s-1.059-2.36-2.361-2.36  S12.477,15.853,12.477,17.154z M14.838,15.294c1.026,0,1.861,0.835,1.861,1.86c0,1.026-0.835,1.861-1.861,1.861  s-1.861-0.835-1.861-1.861C12.977,16.129,13.812,15.294,14.838,15.294z"></path>
        <path xmlns="http://www.w3.org/2000/svg"
              d="M22.851,88.737l0.099-0.49c-0.325-0.065-0.646-0.138-0.964-0.218l-0.122,0.484C22.189,88.596,22.519,88.67,22.851,88.737z"></path>
        <path xmlns="http://www.w3.org/2000/svg"
              d="M19.958,87.935l0.169-0.471c-0.606-0.217-1.209-0.467-1.793-0.743l-0.214,0.451C18.719,87.456,19.337,87.712,19.958,87.935z  "></path>
        <path xmlns="http://www.w3.org/2000/svg"
              d="M13.514,83.487c-0.478-0.436-0.939-0.898-1.37-1.376l-0.371,0.336c0.441,0.489,0.914,0.963,1.404,1.409L13.514,83.487z"></path>
        <path xmlns="http://www.w3.org/2000/svg"
              d="M16.623,85.804c-0.554-0.333-1.097-0.696-1.612-1.081l-0.299,0.4c0.528,0.395,1.084,0.768,1.653,1.108L16.623,85.804z"></path>
        <path xmlns="http://www.w3.org/2000/svg"
              d="M9.838,78.995L9.41,79.253c0.341,0.569,0.712,1.126,1.104,1.654l0.402-0.297C10.534,80.095,10.171,79.552,9.838,78.995z"></path>
        <path xmlns="http://www.w3.org/2000/svg"
              d="M6.745,71.809c0.096,0.651,0.227,1.308,0.388,1.95l0.485-0.121C7.46,73.01,7.333,72.37,7.239,71.736L6.745,71.809z"></path>
        <path xmlns="http://www.w3.org/2000/svg"
              d="M6.526,68.852c0,0.327,0.008,0.653,0.024,0.979l0.499-0.023c-0.015-0.317-0.023-0.636-0.023-0.955  c0-0.327,0.008-0.656,0.024-0.985l-0.499-0.025C6.534,68.18,6.526,68.517,6.526,68.852z"></path>
        <path xmlns="http://www.w3.org/2000/svg"
              d="M8.924,77.284c-0.277-0.584-0.527-1.187-0.743-1.791L7.71,75.661c0.222,0.62,0.478,1.238,0.762,1.838L8.924,77.284z"></path>
        <path xmlns="http://www.w3.org/2000/svg"
              d="M6.75,65.848l0.494,0.074c0.048-0.324,0.105-0.648,0.17-0.973l-0.49-0.098C6.857,65.184,6.799,65.516,6.75,65.848z"></path>
        <path xmlns="http://www.w3.org/2000/svg"
              d="M89.617,76.011l-0.5-0.01c-0.007,0.33-0.025,0.658-0.055,0.982l0.498,0.045C89.591,76.692,89.61,76.353,89.617,76.011z"></path>
        <path xmlns="http://www.w3.org/2000/svg"
              d="M80.458,88.372c-0.666,0.259-1.357,0.465-2.055,0.614l0.104,0.488c0.724-0.153,1.44-0.368,2.131-0.636L80.458,88.372z"></path>
        <path xmlns="http://www.w3.org/2000/svg"
              d="M86.072,85.063c0.492-0.554,0.944-1.15,1.342-1.772l-0.421-0.27c-0.384,0.601-0.819,1.176-1.295,1.71L86.072,85.063z"></path>
        <path xmlns="http://www.w3.org/2000/svg"
              d="M88.001,81.128l0.459,0.199c0.295-0.679,0.538-1.387,0.721-2.104l-0.484-0.125C88.52,79.791,88.286,80.474,88.001,81.128z"></path>
        <path xmlns="http://www.w3.org/2000/svg"
              d="M84.468,86.604l-0.317-0.387c-0.55,0.451-1.143,0.863-1.761,1.225l0.253,0.432C83.283,87.498,83.897,87.071,84.468,86.604z"></path>
        <path xmlns="http://www.w3.org/2000/svg"
              d="M76.271,89.265c-0.325,0.017-0.652,0.023-0.983,0.016l-0.01,0.5c0.094,0.002,0.188,0.003,0.282,0.003  c0.247,0,0.492-0.007,0.736-0.019L76.271,89.265z"></path>
        <rect xmlns="http://www.w3.org/2000/svg" x="88.253" y="36.377" width="0.5" height="2"></rect>
        <rect xmlns="http://www.w3.org/2000/svg" x="88.253" y="28.377" width="0.5" height="2"></rect>
        <rect xmlns="http://www.w3.org/2000/svg" x="88.253" y="40.377" width="0.5" height="2"></rect>
        <rect xmlns="http://www.w3.org/2000/svg" x="88.253" y="32.377" width="0.5" height="2"></rect>
    </g>
    <g id="SvgjsG3183" featurekey="sloganFeature-0"
       transform="matrix(0.6729836463928223,0,0,0.6729836463928223,94,48.392808064969806)" fill="#ffffff">
        <path d="M0 5.98 l11.42 0 c2.14 0 3.88 1.74 3.88 3.9 c0 2.14 -1.74 3.9 -3.88 3.9 l-9.86 -0.02 l0 4.68 l1.56 0 l0 -3.12 l1.54 0 l0 4.68 l-4.66 0 l0 -7.8 l11.42 0.02 c1.28 0 2.32 -1.06 2.32 -2.34 c0 -1.3 -1.04 -2.34 -2.32 -2.34 l-9.86 0 l0 1.56 l9.86 0 c0.4 0.02 0.74 0.36 0.74 0.78 s-0.32 0.76 -0.78 0.78 l-0.02 0 l-11.36 0 l0 -4.68 z M32.68 20 l-5.4 0 l-1.82 -3.14 l-3.5 0 l0 3.14 l-4.66 0 l0 -7.8 l11.44 0.02 c1.3 0 2.34 -1.06 2.34 -2.34 c0 -1.3 -1.04 -2.34 -2.34 -2.34 l-9.88 0 l0 1.56 l9.88 0 c0.42 0.02 0.74 0.36 0.74 0.78 s-0.32 0.76 -0.74 0.78 l-0.02 0 l-0.02 0 l-11.4 0 l0 -4.68 l11.44 0 c2.16 0 3.9 1.74 3.9 3.9 c0 2.14 -1.74 3.9 -3.9 3.9 l-9.88 -0.02 l0 4.68 l1.56 0 l0 -3.14 l5.94 0 c0.64 1.16 1.72 2.94 1.82 3.14 l1.8 0 c-0.16 -0.22 -1.08 -1.86 -1.82 -3.14 l1.8 0 c0.66 1.14 1.32 2.32 1.86 3.2 z M41.88 5.359999999999999 c4.2 0 7.62 3.42 7.62 7.64 s-3.42 7.62 -7.62 7.62 c-4.22 0 -7.64 -3.4 -7.64 -7.62 s3.42 -7.64 7.64 -7.64 z M41.88 19.08 c3.36 0 6.08 -2.72 6.08 -6.08 s-2.72 -6.1 -6.08 -6.1 c-3.38 0 -6.1 2.74 -6.1 6.1 s2.72 6.08 6.1 6.08 z M41.88 8.44 c2.5 0 4.54 2.06 4.54 4.56 s-2.04 4.54 -4.54 4.54 s-4.56 -2.04 -4.56 -4.54 s2.06 -4.56 4.56 -4.56 z M41.88 16 c1.66 0 3 -1.34 3 -3 c0 -1.68 -1.34 -3.02 -3 -3.02 c-1.68 0 -3.02 1.34 -3.02 3.02 c0 1.66 1.34 3 3.02 3 z M50.519999999999996 10.66 l0 -4.68 l15.3 0 l0 4.68 l-3.76 0 l0 -1.56 l2.2 0 l0 -1.56 l-12.18 0 l0 1.56 l5.32 0 l-0.02 9.34 l1.56 0 l0 -9.34 l1.56 0 l0 10.9 l-4.68 0 l0 -9.34 l-5.3 0 z M83.92 5.98 l0 4.68 l-10.62 0 l0 1.56 l7.88 0 l0 1.56 l-9.44 0 l0 -4.68 l10.62 0 l0 -1.56 l-12.18 0 l0 10.9 l12.18 0 l0 -1.56 l-10.62 0 l0 -1.56 l12.18 0 l0 4.68 l-15.3 0 l0 -14.02 l15.3 0 z M102.02 5.98 l0 4.7 l-8.6 0 c-1.18 0.1 -2.08 1.12 -2.08 2.32 s0.9 2.18 2.08 2.32 l5.48 0 l0 1.56 l-5.48 0 c-2.02 -0.16 -3.62 -1.82 -3.62 -3.9 c0 -2 1.54 -3.7 3.54 -3.86 l7.12 0 l0 -1.58 l-7.04 0 l0 0.02 c-2.86 0.16 -5.14 2.52 -5.14 5.44 c0 2.9 2.28 5.28 5.14 5.44 l7.04 0 l0 -3.12 l1.56 0 l0 4.68 l-8.6 0 c-3.74 -0.16 -6.7 -3.24 -6.7 -7 c0 -3.78 2.96 -6.84 6.7 -7 z M104.82 10.66 l0 -4.68 l15.3 0 l0 4.68 l-3.76 0 l0 -1.56 l2.2 0 l0 -1.56 l-12.18 0 l0 1.56 l5.32 0 l-0.02 9.34 l1.56 0 l0 -9.34 l1.56 0 l0 10.9 l-4.68 0 l0 -9.34 l-5.3 0 z M127.6 20 l-4.68 0 l0 -14.02 l4.68 0 l0 10.9 l-1.56 0 l0 -9.34 l-1.56 0 l0 10.9 l3.12 0 l0 1.56 z M141.01999999999998 12.84 l0 -6.86 l4.68 0 l0 14.02 l-4.68 0 l-7.5 -8.68 l0 -2.4 l8.22 9.52 l2.4 0 l0 -10.9 l-1.56 0 l0 9.5 l-8.22 -9.5 l-2.4 0 l0 10.9 l1.56 0 l0 -4.72 l1.56 1.8 l0 4.48 l-4.68 0 l0 -14.02 l4.68 0 z M154.85999999999999 12.2 l8.96 0 l0 7.8 l-8.62 0 c-3.74 -0.16 -6.7 -3.24 -6.7 -7 c0 -3.78 2.96 -6.86 6.7 -7.02 l8.62 0 l0 4.7 l-8.62 0 c-1.18 0.1 -2.08 1.12 -2.08 2.3 c0 1.22 0.9 2.18 2.08 2.34 l5.48 0 l0 1.56 l-5.48 0 c-2.02 -0.16 -3.62 -1.82 -3.62 -3.9 c0 -2 1.54 -3.72 3.54 -3.88 l7.12 0 l0 -1.56 l-7.04 0 c-2.86 0.16 -5.14 2.54 -5.14 5.46 c0 2.9 2.28 5.28 5.14 5.44 l7.04 0 l0 -4.68 l-7.38 0 l0 -1.56 z M186.31999999999996 5.98 l5.66 0 l-5.34 7.68 l0 6.34 l-4.68 0 l0 -6.3 l-5.34 -7.72 l5.68 0 l1.12 1.64 l-0.92 1.38 l-1 -1.46 l-1.9 0 l3.92 5.66 l0.02 0.02 l0 5.22 l1.6 0 l0 -5.24 l3.86 -5.66 l-1.9 0 l-2.8 4.06 l-0.9 -1.28 z M201.61999999999995 5.359999999999999 c4.2 0 7.62 3.42 7.62 7.64 s-3.42 7.62 -7.62 7.62 c-4.22 0 -7.64 -3.4 -7.64 -7.62 s3.42 -7.64 7.64 -7.64 z M201.61999999999995 19.08 c3.36 0 6.08 -2.72 6.08 -6.08 s-2.72 -6.1 -6.08 -6.1 c-3.38 0 -6.1 2.74 -6.1 6.1 s2.72 6.08 6.1 6.08 z M201.61999999999995 8.44 c2.5 0 4.54 2.06 4.54 4.56 s-2.04 4.54 -4.54 4.54 s-4.56 -2.04 -4.56 -4.54 s2.06 -4.56 4.56 -4.56 z M201.61999999999995 16 c1.66 0 3 -1.34 3 -3 c0 -1.68 -1.34 -3.02 -3 -3.02 c-1.68 0 -3.02 1.34 -3.02 3.02 c0 1.66 1.34 3 3.02 3 z M227.21999999999997 5.98 l0 6.44 c0 4.16 -3.4 7.58 -7.6 7.58 c-4.12 0 -7.42 -3.24 -7.58 -7.32 l0 -6.7 l4.58 0 l0 6.44 c0 1.66 1.34 3 3 3 s2.94 -1.3 3 -2.92 l0 -6.52 l1.52 0 l0 6.44 c0 2.48 -2.02 4.52 -4.52 4.52 c-2.46 0 -4.5 -2 -4.5 -4.48 l-0.02 0 l0 -4.94 l-1.5 0 l0 5 c0.06 3.28 2.74 5.92 6.02 5.92 c3.34 0 6.02 -2.7 6.02 -6.02 l0 -6.44 l1.58 0 z  M245.39999999999995 20 l-5.4 0 l-1.82 -3.14 l-3.5 0 l0 3.14 l-4.66 0 l0 -7.8 l11.44 0.02 c1.3 0 2.34 -1.06 2.34 -2.34 c0 -1.3 -1.04 -2.34 -2.34 -2.34 l-9.88 0 l0 1.56 l9.88 0 c0.42 0.02 0.74 0.36 0.74 0.78 s-0.32 0.76 -0.74 0.78 l-0.02 0 l-0.02 0 l-11.4 0 l0 -4.68 l11.44 0 c2.16 0 3.9 1.74 3.9 3.9 c0 2.14 -1.74 3.9 -3.9 3.9 l-9.88 -0.02 l0 4.68 l1.56 0 l0 -3.14 l5.94 0 c0.64 1.16 1.72 2.94 1.82 3.14 l1.8 0 c-0.16 -0.22 -1.08 -1.86 -1.82 -3.14 l1.8 0 c0.66 1.14 1.32 2.32 1.86 3.2 z M265.8999999999999 15.16 l1.14 -1.06 l6.42 5.9 l-6.9 0 l-5.24 -4.8 l8.12 -7.66 l-2.26 0 l-5.86 5.66 l0 -5.66 l-1.56 0 l0 10.9 l2.76 0 l1.72 1.56 l-6.04 0 l0 -14.02 l4.68 0 l0 3.44 l3.68 -3.44 l6.82 0 l-9.78 9.2 l3.56 3.26 l2.3 0 z M286.87999999999994 12.84 l0 -6.86 l4.68 0 l0 14.02 l-4.68 0 l-7.5 -8.68 l0 -2.4 l8.22 9.52 l2.4 0 l0 -10.9 l-1.56 0 l0 9.5 l-8.22 -9.5 l-2.4 0 l0 10.9 l1.56 0 l0 -4.72 l1.56 1.8 l0 4.48 l-4.68 0 l0 -14.02 l4.68 0 z M301.99999999999994 5.359999999999999 c4.2 0 7.62 3.42 7.62 7.64 s-3.42 7.62 -7.62 7.62 c-4.22 0 -7.64 -3.4 -7.64 -7.62 s3.42 -7.64 7.64 -7.64 z M301.99999999999994 19.08 c3.36 0 6.08 -2.72 6.08 -6.08 s-2.72 -6.1 -6.08 -6.1 c-3.38 0 -6.1 2.74 -6.1 6.1 s2.72 6.08 6.1 6.08 z M301.99999999999994 8.44 c2.5 0 4.54 2.06 4.54 4.56 s-2.04 4.54 -4.54 4.54 s-4.56 -2.04 -4.56 -4.54 s2.06 -4.56 4.56 -4.56 z M301.99999999999994 16 c1.66 0 3 -1.34 3 -3 c0 -1.68 -1.34 -3.02 -3 -3.02 c-1.68 0 -3.02 1.34 -3.02 3.02 c0 1.66 1.34 3 3.02 3 z M331.09999999999997 5.98 l5.4 0 c-0.3 0.5 -2.32 4.02 -4.26 7.4 c-1.14 1.98 -2.4 4.2 -3.82 6.62 l-1.8 0 l-1.58 -2.7 c-0.8 -1.46 -1.72 -2.96 -2.04 -3.54 c-0.94 1.62 -1.82 3.16 -2.48 4.34 c-0.38 0.68 -0.76 1.32 -1.1 1.9 l-1.8 0 c0.16 -0.32 4.92 -8.64 5.38 -9.34 c0.04 0.04 1.16 1.98 2.28 3.92 l2.24 3.86 c0.96 -1.66 2.52 -4.4 3.86 -6.7 l2.42 -4.2 l-1.8 0 c-1.76 3.1 -3.02 5.3 -4.46 7.74 l-2.24 -3.8 l-2.3 -3.94 c-2.5 4.32 -3.98 6.96 -6.28 10.9 c-0.14 -0.24 -7.24 -12.44 -7.22 -12.46 l5.4 0 l2.72 4.68 l-0.9 1.56 l-2.72 -4.68 l-1.8 0 c0.4 0.64 4.14 7.16 4.52 7.78 l3.92 -6.8 l1.46 -2.54 l1.8 0 c0.18 0.34 2.78 4.8 3.64 6.2 c1.12 -1.92 1.98 -3.44 2.6 -4.54 z M340.05999999999995 7.539999999999999 l0 7.78 l13.82 0 l0 4.68 l-15.38 0 l0 -1.56 l13.84 0 l0 -1.56 l-13.84 0 l0 -10.9 l4.68 0 l0 7.8 l-1.56 0 l0 -6.24 l-1.56 0 z M371.97999999999996 5.98 l0 4.68 l-10.62 0 l0 1.56 l7.88 0 l0 1.56 l-9.44 0 l0 -4.68 l10.62 0 l0 -1.56 l-12.18 0 l0 10.9 l12.18 0 l0 -1.56 l-10.62 0 l0 -1.56 l12.18 0 l0 4.68 l-15.3 0 l0 -14.02 l15.3 0 z M374.78 5.98 l8.6 0 c3.74 0.16 6.7 3.24 6.7 7 c0 3.78 -2.96 6.86 -6.7 7.02 l-8.6 0 l0 -10.9 l8.6 0 c2.02 0.16 3.62 1.82 3.62 3.9 c0 2 -1.54 3.72 -3.54 3.88 l-5.56 0 l0 -4.92 l1.56 0 l0 3.36 l3.92 -0.02 c1.18 -0.1 2.08 -1.12 2.08 -2.3 c0 -1.02 -0.64 -1.86 -1.54 -2.2 c-0.34 -0.14 -0.54 -0.14 -1.08 -0.14 l-6.5 0 l0 7.78 l7.04 0 c2.86 -0.16 5.14 -2.52 5.14 -5.46 c0 -2.9 -2.28 -5.28 -5.14 -5.44 l-8.6 0 l0 -1.56 z M398.44 12.2 l8.96 0 l0 7.8 l-8.62 0 c-3.74 -0.16 -6.7 -3.24 -6.7 -7 c0 -3.78 2.96 -6.86 6.7 -7.02 l8.62 0 l0 4.7 l-8.62 0 c-1.18 0.1 -2.08 1.12 -2.08 2.3 c0 1.22 0.9 2.18 2.08 2.34 l5.48 0 l0 1.56 l-5.48 0 c-2.02 -0.16 -3.62 -1.82 -3.62 -3.9 c0 -2 1.54 -3.72 3.54 -3.88 l7.12 0 l0 -1.56 l-7.04 0 c-2.86 0.16 -5.14 2.54 -5.14 5.46 c0 2.9 2.28 5.28 5.14 5.44 l7.04 0 l0 -4.68 l-7.38 0 l0 -1.56 z M425.5 5.98 l0 4.68 l-10.62 0 l0 1.56 l7.88 0 l0 1.56 l-9.44 0 l0 -4.68 l10.62 0 l0 -1.56 l-12.18 0 l0 10.9 l12.18 0 l0 -1.56 l-10.62 0 l0 -1.56 l12.18 0 l0 4.68 l-15.3 0 l0 -14.02 l15.3 0 z"></path>
    </g>
    <g id="SvgjsG3184" featurekey="nameLeftFeature-0"
       transform="matrix(2.095149517059326,0,0,2.095149517059326,96.90485175779226,-3.0431719867802585)" fill="#ffffff">
        <path d="M9.16 21.38 c-0.08 0 -0.18 -0.06 -0.22 -0.14 l-0.6 -1.24 c-0.28 0.04 -0.58 0.06 -0.9 0.06 c-1.18 0 -2.28 -0.3 -3.26 -0.86 s-1.76 -1.34 -2.32 -2.32 s-0.86 -2.08 -0.86 -3.28 s0.3 -2.3 0.86 -3.28 s1.34 -1.74 2.3 -2.3 c0.98 -0.56 2.08 -0.84 3.28 -0.84 s2.3 0.28 3.28 0.84 c0.96 0.56 1.76 1.32 2.32 2.3 s0.84 2.08 0.84 3.28 c0 1.18 -0.28 2.3 -0.84 3.28 c-0.46 0.78 -1.04 1.42 -1.74 1.94 l1 2.14 c0.04 0.04 0.08 0.1 0.08 0.16 c0 0.14 -0.12 0.26 -0.26 0.26 l-2.96 0 z M7 17.14 l-0.8 -1.68 c-0.04 -0.04 -0.06 -0.1 -0.06 -0.16 c0 -0.14 0.12 -0.26 0.26 -0.26 l2.94 0 c0.1 0 0.18 0.06 0.24 0.14 l0.36 0.76 c0.12 -0.16 0.22 -0.34 0.32 -0.52 c0.3 -0.54 0.44 -1.16 0.44 -1.82 s-0.14 -1.26 -0.44 -1.8 c-0.28 -0.54 -0.68 -0.98 -1.18 -1.28 c-0.48 -0.32 -1.02 -0.46 -1.6 -0.46 s-1.14 0.14 -1.64 0.46 c-0.52 0.32 -0.92 0.74 -1.22 1.28 c-0.28 0.54 -0.44 1.14 -0.44 1.8 s0.16 1.26 0.46 1.8 s0.7 0.98 1.2 1.3 c0.36 0.22 0.76 0.38 1.16 0.44 z M21.1 20 c-1.08 0 -1.86 -0.22 -2.68 -0.66 c-0.8 -0.44 -1.44 -1.06 -1.88 -1.88 c-0.44 -0.8 -0.66 -1.76 -0.66 -2.86 l0 -7.04 c0 -0.14 0.12 -0.24 0.26 -0.24 l2.6 0 c0.14 0 0.24 0.1 0.24 0.24 l0 7.04 c0 0.8 0.22 1.42 0.64 1.86 s0.8 0.66 1.5 0.66 s1.06 -0.22 1.46 -0.64 c0.4 -0.44 0.6 -1.08 0.6 -1.88 l0 -7.04 c0 -0.14 0.12 -0.24 0.26 -0.24 l2.6 0 c0.14 0 0.26 0.1 0.26 0.24 l0 7.04 c0 1.1 -0.22 2.06 -0.66 2.86 c-0.42 0.82 -1.06 1.44 -1.86 1.88 s-1.6 0.66 -2.68 0.66 z M28.560000000000002 20 c-0.14 0 -0.26 -0.12 -0.26 -0.26 l0 -11.98 c0 -0.14 0.12 -0.26 0.26 -0.26 l2.6 0 c0.14 0 0.26 0.12 0.26 0.26 l0 11.98 c0 0.14 -0.12 0.26 -0.26 0.26 l-2.6 0 z"></path>
    </g>
    <g id="SvgjsG3185" featurekey="inlineSymbolFeature-0"
       transform="matrix(0.3633866608142853,0,0,0.3633866608142853,162.74019918760212,9.867856297652907)"
       fill="#9333ea">
        <g xmlns="http://www.w3.org/2000/svg">
            <path d="M84.3,28.9c-0.5-0.7-1.2-1.2-1.9-1.7c-0.7-0.5-1.5-0.8-2.5-1.3c0.7-0.3,1.2-0.5,1.6-0.6c0.5-0.2,1.1-0.4,1.6-0.6   c1.7-0.7,1.9-2.3,0.5-3.5c-0.6-0.5-1.3-0.7-2.1-0.9c-1-0.2-2.1-0.3-3.1-0.5c0.7-0.5,1.4-0.8,2.1-1.1c0.9-0.4,1.8-0.7,2.5-1.2   c0.4-0.3,0.7-1,0.6-1.4c-0.2-0.5-0.8-0.8-1.3-1.1c-0.3-0.1-0.7,0-1.1,0c-2.3,0.1-4.7,0.2-7,0.4c-1.2,0.1-2-0.4-2.7-1.4   c-0.5-0.8-1.1-1.5-1.8-2.1C62.6,5.3,54.3,4.3,45.4,8c-2,0.9-4.1,1.5-6.4,1.4c-0.6,0-1.3,0.1-1.8,0.4c-3.6,1.6-6.8,3.7-9.5,6.5   c-0.6,0.6-1.7,1.1-1,2.2c0.7,1.2,1.9,0.9,2.9,0.6c1.3-0.4,2.6-1,3.9-1.6c0.5-0.2,0.9-0.4,1.4-0.5c3.6-0.4,7.2-0.8,10.8-1.1   c0,0.2,0,0.3,0.1,0.5c-4.3,1.4-8.5,2.7-12.8,4.2c-1.5,0.5-3,1.1-4.5,1.7c-1.1,0.5-1.2,1.3-0.1,1.9c0.4,0.2,0.8,0.3,1.3,0.4   c4.6,0.9,9.2,0.3,13.7-0.6c3.6-0.8,7.2-1.3,10.8-1.7c1.3-0.2,2.6,0.5,3.2,1.7c0.5,1.2,0.5,2.6-0.4,3.8c-1.8,2.6-4.4,4.2-7.2,5.2   c-3.5,1.2-7,2.1-10.5,3.3c-4.2,1.5-8.4,3-12,5.6c-5.1,3.7-8.2,8.9-10.7,14.5c-2.6,5.9-3.2,11.9,0.4,17.8c1.5,2.4,2.9,4.8,5.3,6.5   c5.5,3.9,11.7,5.2,18.3,4.3c5.2-0.7,10.2-1.9,15.3-2.9c5.8-1.1,11.5-1.5,17.1,0.6c2,0.7,3.7,1.5,3.4,4.1c0,0.3,0.3,0.8,0.6,0.9   c0.3,0.1,0.8,0,1.1-0.2c2.4-2.2,2.7-5.3,0.8-8c-2.7-3.9-6.6-5.5-11.1-6c-1-0.1-1.5-0.4-1.3-1.5c0.2-1.3-0.4-1.9-1.8-1.9   c-0.4,0-0.9-0.2-1.1-0.5c-1.1-1.8-1.2-2-3.2-1.3c-2,0.7-4,1.4-6,2.2c0-0.6-0.1-1.1-0.1-1.5c-0.3-2.1-1.4-2.8-3.4-2   c-0.5,0.2-0.9,0.5-1.3,0.6c-2,0.8-4.1,1.7-6.1,2.4c-0.8,0.3-1.8,0.2-2.8,0.3c0.2-1.2,0.5-2.2,0.5-3.1c0.1-1.9-0.5-2.3-2.4-1.7   c-1.7,0.6-3.4,1.3-5.2,1.9c-0.8,0.3-1.7,0.4-2.3,0.5c-0.4-1.2-0.5-2.3-1.1-2.9c-1.2-1-0.8-1.8,0.1-2.5c1.4-1.2,2.9-2.2,4.5-3.2   c2.2-1.4,2.3-1.4,1.8-3.9c-0.3-1.9-0.1-2.3,1.8-2.6c0.5-0.1,1-0.1,1.5-0.2c1.6-0.2,3.3-0.3,4.9-0.6c1.9-0.3,2.3-1,2-2.9   c-0.1-0.4-0.1-0.8-0.1-1.2c1.7,0,3.3-0.1,4.9,0c3,0.2,6,0.8,9,0.7c3.6-0.1,4-0.6,4.9-4.1c0-0.1,0.1-0.1,0.2-0.3   c0.4,0.1,0.9,0.2,1.4,0.2c2.5,0.1,4.9,0.4,7.4,0.3c2.3,0,2.9-0.9,2.3-3.1c-0.2-0.8-0.6-1.6-0.9-2.4c1.5-0.1,3-0.1,4.4-0.3   c2.2-0.3,2.9-1.8,1.6-3.7c-0.5-0.7-1.2-1.3-1.9-1.9c-0.2-0.2-0.5-0.4-0.9-0.7c1.7-0.4,3.1-0.7,4.5-1.1   C84.8,31.1,85.2,30.1,84.3,28.9z M70.9,75.5c3.2,0.8,5.5,2.7,7.2,5.4c0.7,1.2,0.5,2.5-0.4,3.9c-1-1.9-2.6-2.7-4.4-3.4   c-5.8-2.1-11.7-2-17.7-0.9c-5.1,1-10.1,2.2-15.2,2.9c-6.3,0.9-12.5,0.2-17.6-4c-5-4.1-8.1-10.4-6.4-17.2c2-7.6,5.9-14.2,12.2-19   c3.7-2.8,8.2-4.2,12.6-5.7c3.2-1.1,6.5-1.9,9.6-3.1c2.7-1,5.3-2.5,7.1-5c2.6-3.5,0.8-8.4-3.6-9c-2.1-0.3-4.4,0.1-6.5,0.4   c-3.3,0.6-6.6,1.5-9.9,2c-2,0.3-4.1,0.2-6.1,0.4c0-0.1-0.1-0.2-0.1-0.3c0.4-0.2,0.8-0.4,1.3-0.5c5.5-1.6,11-3.3,16.5-4.9   c0.4-0.1,0.8-0.5,1.2-0.8c-0.4-0.5-0.7-1.4-1.2-1.5c-1.4-0.4-2.9-0.8-4.4-0.8c-3.8,0.1-7.5,0.4-11.2,0.7c-0.7,0.1-1.4,0.5-2.4,0.8   c0.3-0.4,0.5-0.6,0.7-0.8c2.8-2.1,5.7-3.9,9.5-3.9c1.8,0,3.6-0.8,5.3-1.5c5.6-2.4,11.2-2.7,16.8-0.2c3.2,1.4,5.8,3.7,7.9,6.7   c1.8,2.6,2.2,5,1.7,7.9c-0.8,4.4-2.7,8-6.7,10.4c-4.4,2.7-9.2,4.1-14,5.4c-6.9,1.9-13.6,4.3-19.5,8.5c-3.9,2.8-7.8,5.7-9.4,10.5   c-2.1,6.2-1,11.2,4.6,14.4c4.7,2.7,9.8,3.3,15.1,2.9c4.1-0.3,8.1-1.1,12.2-1.5C60.8,74.3,65.9,74.3,70.9,75.5z M79.4,30.8   c-0.7,0.2-1.4,0.2-2,0.5c-0.4,0.2-1,0.6-1,1c0,0.4,0.4,0.9,0.8,1.2c1,0.8,2.1,1.3,3.1,2.1c0.9,0.8,0.8,1.4-0.4,1.6   c-1.5,0.3-3.1,0.3-4.7,0.3c-1.2,0.1-1.6,0.5-1.2,1.7c0.3,0.7,0.7,1.4,1,2.1c0.5,1.3,0.2,1.9-1.2,1.9c-2.8-0.1-5.6-0.3-8.4-0.6   c-0.9-0.1-1.3,0.1-1.5,1c-0.8,3.1-1.1,3.5-4.3,3.4c-2.6,0-5.3-0.5-7.9-0.7c-1.9-0.1-3.8-0.2-5.6-0.1c-1.2,0-0.9,1.1-1,1.7   c-0.1,2.3-0.1,2.3-2.4,2.6c-1.9,0.3-3.8,0.5-5.7,0.7c-1.6,0.1-2.1,1-2.2,2.4c0,0.2-0.1,0.5,0,0.7c0.9,2.3-0.6,3.3-2.3,4.2   c-1.2,0.7-2.3,1.5-3.4,2.4c-1,0.8-1.5,2-1.4,3.4c0,0.3,0.1,0.9,0.3,1c1.3,0.6,1.2,1.8,1.4,2.9c0.1,0.5,0.9,1.1,1.3,1.1   c1.2,0,2.4-0.2,3.5-0.5c1.7-0.5,3.3-1.2,5.3-2c-0.3,1.1-0.5,2-0.7,2.8c-0.4,1.7,0,2.2,1.8,2.2c3.6,0.1,6.7-1.4,9.8-2.9   c0.6-0.3,1.3-0.5,2.2-0.9c0,1.1,0,1.9,0,2.7c0.1,1.5,0.5,1.9,2,1.4c1.9-0.6,3.7-1.4,5.5-2.1c0.5-0.2,1.1-0.3,1.8-0.5   c0,2,1.3,2.3,2.8,2c0,0.6,0,1,0,1.5c-3,0-5.9-0.2-8.8,0c-4.1,0.3-8.1,1-12.1,1.5c-4.5,0.5-8.9,0.2-13.1-1.6   c-1.7-0.8-3.4-1.9-4.7-3.3c-0.8-0.8-1.4-2.2-1.5-3.4c-0.7-4.8,1.3-8.7,4.7-12.1c5.5-5.4,12.2-8.8,19.5-11.1   c4.1-1.3,8.3-2.4,12.4-3.8c2.7-1,5.3-2.3,7.7-3.8C73,32.9,74.7,28.7,75,24c0.2-2.2,0.4-4.5-1-6.8c1.9,0,3.5,0,5.5,0   c-0.9,0.4-1.6,0.7-2.4,1c-0.9,0.3-1.6,0.9-1.5,2c0.1,1,1,1.1,1.8,1.2c1.3,0.2,2.7,0.3,4,0.5c0.5,0.1,1.1,0.3,1.6,0.5   c0,0.1,0,0.3,0,0.4c-1.5,0.6-3,1.1-4.5,1.7c-0.7,0.3-1.5,0.4-1.5,1.4c0,1.1,0.9,1.1,1.6,1.4c1.6,0.5,3.2,1.1,4.7,2.5   C81.9,30.2,80.7,30.5,79.4,30.8z"></path>
            <path d="M60.9,14.3c-0.2-0.5-0.2-1.2-0.5-1.4c-1.2-0.8-2.4-1.4-3.9-2.1c-0.4,0.5-1,0.8-1,1.1c0,0.4,0.3,1.1,0.6,1.3   c1.1,0.6,2.2,1,3.3,1.3C59.9,14.7,60.4,14.4,60.9,14.3z"></path>
        </g>
    </g>
    <g id="SvgjsG3186" featurekey="nameRightFeature-0"
       transform="matrix(1.9046810865402222,0,0,1.9046810865402222,202.3814454029647,3.200373483956902)" fill="#ffffff">
        <path d="M10.620000000000001 4.880000000000001 l5.8 0 c0.82 0 1.48 0.66 1.48 1.48 c0 0.8 -0.66 1.46 -1.48 1.46 l-5.82 0 c-0.86 0 -1.56 0.7 -1.56 1.58 c0 0.86 0.7 1.56 1.56 1.56 l4 0 c2.5 0 4.52 2.02 4.52 4.52 c0 0.34 -0.28 0.6 -0.6 0.6 c-0.34 0 -0.62 -0.26 -0.62 -0.6 c0 -1.82 -1.48 -3.3 -3.3 -3.3 l-4 0 c-1.54 0 -2.78 -1.24 -2.78 -2.78 s1.24 -2.8 2.78 -2.8 l5.82 0 c0.14 0 0.26 -0.1 0.26 -0.24 s-0.12 -0.26 -0.26 -0.26 l-5.8 0 c-1.82 0 -3.3 1.48 -3.3 3.3 c0 0.34 -0.28 0.6 -0.62 0.6 c-0.32 0 -0.6 -0.26 -0.6 -0.6 c0 -2.5 2.02 -4.52 4.52 -4.52 z M10.620000000000001 12.7 l4 0 c1.54 0 2.78 1.26 2.78 2.8 s-1.24 2.78 -2.78 2.78 l-6.4 0 c-0.14 0 -0.26 0.12 -0.26 0.26 s0.12 0.24 0.26 0.24 l6.38 0 c0.34 0 0.6 0.28 0.6 0.62 c0 0.32 -0.26 0.6 -0.6 0.6 l-6.38 0 c-0.82 0 -1.48 -0.66 -1.48 -1.46 s0.62 -1.48 1.42 -1.48 l6.46 0 c0.86 0 1.56 -0.7 1.56 -1.56 c0 -0.88 -0.7 -1.58 -1.56 -1.58 l-4 0 c-0.34 0 -0.6 -0.28 -0.6 -0.6 c0 -0.34 0.26 -0.62 0.6 -0.62 z M24.220000000000002 4.880000000000001 l7.42 0 c0.8 0 1.46 0.66 1.46 1.46 s-0.62 1.48 -1.42 1.48 l-7.46 0 c-0.3 0 -0.56 0.24 -0.56 0.56 c0 0.3 0.26 0.56 0.56 0.56 c0.34 0 0.62 0.26 0.62 0.6 s-0.28 0.62 -0.62 0.62 c-0.98 0 -1.76 -0.8 -1.76 -1.78 s0.78 -1.78 1.76 -1.78 l7.42 0 c0.14 0 0.24 -0.12 0.24 -0.26 s-0.1 -0.24 -0.24 -0.24 l-7.42 0 c-1.26 0 -2.28 1.02 -2.28 2.28 s1.02 2.28 2.28 2.28 l5.38 0 c0.98 0 1.78 0.8 1.78 1.8 c0 0.98 -0.8 1.76 -1.78 1.76 l-5.38 0 c-1.26 0 -2.28 1.02 -2.28 2.28 s1.02 2.28 2.28 2.28 l8.26 0 c0.34 0 0.62 0.28 0.62 0.62 s-0.28 0.6 -0.62 0.6 l-8.26 0 c-1.94 0 -3.5 -1.56 -3.5 -3.5 c0 -1.92 1.56 -3.5 3.5 -3.5 l5.38 0 c0.32 0 0.56 -0.24 0.56 -0.54 c0 -0.34 -0.24 -0.58 -0.56 -0.58 l-5.38 0 c-1.92 0 -3.5 -1.58 -3.5 -3.5 c0 -1.94 1.58 -3.5 3.5 -3.5 z M24.220000000000002 14.74 l5.38 0 c0.34 0 0.62 0.26 0.62 0.6 s-0.28 0.62 -0.62 0.62 l-5.38 0 c-0.3 0 -0.56 0.24 -0.56 0.54 c0 0.32 0.26 0.56 0.56 0.56 c0.34 0 0.6 0.28 0.6 0.62 c0 0.32 -0.26 0.6 -0.6 0.6 c-0.98 0 -1.78 -0.8 -1.78 -1.78 s0.8 -1.76 1.78 -1.76 z M42.400000000000006 4.619999999999999 c2.1 0 4.06 0.82 5.52 2.28 c0.24 0.24 0.24 0.62 0 0.86 c-0.22 0.24 -0.62 0.24 -0.84 0 c-1.26 -1.24 -2.9 -1.92 -4.68 -1.94 c-3.62 0 -6.6 2.98 -6.6 6.6 c0 3.64 2.98 6.62 6.6 6.62 c1.78 0 3.44 -0.7 4.68 -1.94 c0.14 -0.14 0.08 -0.3 0 -0.38 c-0.1 -0.1 -0.26 -0.12 -0.38 0 c-1.16 1.16 -2.68 1.76 -4.3 1.76 c-3.34 0 -6.04 -2.7 -6.04 -6.06 c0 -1.6 0.62 -3.12 1.76 -4.28 c0.24 -0.22 0.62 -0.22 0.86 0 c0.24 0.24 0.24 0.62 0 0.86 c-0.92 0.92 -1.42 2.14 -1.42 3.42 c0 2.68 2.18 4.86 4.84 4.86 c1.3 0 2.52 -0.5 3.44 -1.42 c0.62 -0.62 1.5 -0.6 2.1 0 c0.64 0.64 0.62 1.48 0 2.1 c-1.48 1.48 -3.44 2.28 -5.54 2.28 c-4.3 0 -7.8 -3.5 -7.8 -7.82 c0 -4.3 3.5 -7.8 7.8 -7.8 z M61.760000000000005 4.880000000000001 c0.8 0 1.44 0.64 1.46 1.44 l0 7.32 c0 1.76 -0.68 3.42 -1.94 4.68 c-1.28 1.28 -2.98 1.92 -4.66 1.92 c-1.7 0 -3.38 -0.64 -4.66 -1.92 c-1.26 -1.26 -1.94 -2.92 -1.94 -4.68 c0 -0.32 0.26 -0.6 0.6 -0.6 c0.32 0 0.6 0.28 0.6 0.6 c0 1.44 0.56 2.8 1.58 3.82 c2.1 2.12 5.54 2.12 7.64 0 c1.02 -1.02 1.58 -2.38 1.58 -3.82 l0 -7.3 c0 -0.14 -0.12 -0.26 -0.26 -0.26 c-0.16 0 -0.28 0.12 -0.28 0.26 l0 7.3 c0 1.3 -0.5 2.52 -1.42 3.44 s-2.14 1.42 -3.44 1.42 s-2.52 -0.5 -3.44 -1.42 s-1.42 -2.14 -1.42 -3.44 l0 -8.16 c0 -0.34 0.26 -0.6 0.58 -0.6 c0.34 0 0.6 0.26 0.6 0.6 l0 8.16 c0 0.98 0.38 1.9 1.08 2.6 s1.62 1.08 2.6 1.08 s1.9 -0.38 2.6 -1.08 c0.68 -0.7 1.08 -1.62 1.08 -2.6 l0 -7.32 c0 -0.8 0.66 -1.44 1.46 -1.44 z M65.42 4.880000000000001 l7.28 0 c2.48 0.02 4.48 2.06 4.48 4.54 c0 2.32 -1.78 4.24 -4.04 4.48 l3.62 3.6 c0.54 0.54 0.54 1.54 0 2.08 s-1.48 0.58 -2.04 0.02 c-0.52 -0.54 -2.52 -2.52 -2.52 -2.52 c-0.24 -0.24 -0.24 -0.62 0 -0.86 s0.62 -0.24 0.86 0 l2.48 2.48 c0.1 0.1 0.26 0.12 0.36 0.02 s0.12 -0.24 0 -0.36 l-4.64 -4.62 c-0.12 -0.12 -0.18 -0.26 -0.18 -0.42 c0 -0.34 0.28 -0.62 0.62 -0.62 l0.96 0 c1.82 0 3.32 -1.48 3.32 -3.3 s-1.5 -3.3 -3.32 -3.3 l-6.62 0 l0 3.3 c0 0.34 -0.28 0.6 -0.62 0.6 s-0.6 -0.26 -0.6 -0.6 l0 -3.92 c0 -0.32 0.26 -0.6 0.6 -0.6 z M72.68 6.6 c1.54 0 2.8 1.26 2.8 2.8 s-1.26 2.78 -2.8 2.78 l-3.34 0 c-1.82 0 -3.3 1.48 -3.3 3.3 l0 3.92 c0 0.32 -0.28 0.6 -0.62 0.6 s-0.6 -0.28 -0.6 -0.6 l0 -3.92 c0 -2.5 2.02 -4.52 4.52 -4.52 l3.34 0 c0.88 0 1.58 -0.7 1.58 -1.56 c0 -0.88 -0.7 -1.58 -1.58 -1.58 c-0.34 0 -0.6 -0.26 -0.6 -0.6 s0.26 -0.62 0.6 -0.62 z M82.28 4.880000000000001 l7.42 0 c0.8 0 1.46 0.66 1.46 1.46 s-0.62 1.48 -1.42 1.48 l-7.46 0 c-0.3 0 -0.56 0.24 -0.56 0.56 c0 0.3 0.26 0.56 0.56 0.56 c0.34 0 0.62 0.26 0.62 0.6 s-0.28 0.62 -0.62 0.62 c-0.98 0 -1.76 -0.8 -1.76 -1.78 s0.78 -1.78 1.76 -1.78 l7.42 0 c0.14 0 0.24 -0.12 0.24 -0.26 s-0.1 -0.24 -0.24 -0.24 l-7.42 0 c-1.26 0 -2.28 1.02 -2.28 2.28 s1.02 2.28 2.28 2.28 l5.38 0 c0.98 0 1.78 0.8 1.78 1.8 c0 0.98 -0.8 1.76 -1.78 1.76 l-5.38 0 c-1.26 0 -2.28 1.02 -2.28 2.28 s1.02 2.28 2.28 2.28 l8.26 0 c0.34 0 0.62 0.28 0.62 0.62 s-0.28 0.6 -0.62 0.6 l-8.26 0 c-1.94 0 -3.5 -1.56 -3.5 -3.5 c0 -1.92 1.56 -3.5 3.5 -3.5 l5.38 0 c0.32 0 0.56 -0.24 0.56 -0.54 c0 -0.34 -0.24 -0.58 -0.56 -0.58 l-5.38 0 c-1.92 0 -3.5 -1.58 -3.5 -3.5 c0 -1.94 1.58 -3.5 3.5 -3.5 z M82.28 14.74 l5.38 0 c0.34 0 0.62 0.26 0.62 0.6 s-0.28 0.62 -0.62 0.62 l-5.38 0 c-0.3 0 -0.56 0.24 -0.56 0.54 c0 0.32 0.26 0.56 0.56 0.56 c0.34 0 0.6 0.28 0.6 0.62 c0 0.32 -0.26 0.6 -0.6 0.6 c-0.98 0 -1.78 -0.8 -1.78 -1.78 s0.8 -1.76 1.78 -1.76 z"></path>
    </g>
</svg>